<svg id="Layer_1" data-name="Layer 1" xmlns="http://www.w3.org/2000/svg" width="147.66mm" height="43.53mm" viewBox="0 0 418.57 123.4"><defs><style>.cls-1{fill:#1d1d1b;stroke:#fff;stroke-miterlimit:10;}</style></defs><title>mamao_black</title><path class="cls-1" d="M0,95.49,12.09,20.12H26.56L45.32,65.21,64.08,20.12H78.54L90.63,95.49H73.23l-6-45-18.87,45h-6.1l-18.88-45-6,45Z"/><path class="cls-1" d="M144.31,81.25H115.83l-5.77,14.24H92l30.4-75.37h15.94L168,95.49H150Zm-4.75-13.33L130.29,42.6l-9.38,25.32Z"/><path class="cls-1" d="M169.39,95.49l12.09-75.37H196l18.76,45.09,18.76-45.09h14.46L260,95.49h-17.4l-6-45-18.87,45h-6.1l-18.88-45-6,45Z"/><path class="cls-1" d="M313.7,81.25H285.22l-5.76,14.24H261.37l30.4-75.37h15.94l29.72,75.37H319.35ZM277.65,0H321.5V10.4H277.65ZM309,67.92,299.68,42.6,290.3,67.92Z"/><path class="cls-1" d="M406.81,29.38a39.24,39.24,0,0,1,11.76,28.48,39,39,0,0,1-11.76,28.25c-7,6.79-16.5,11.08-29.15,11.08-14.13,0-23.74-5.65-29.39-11.08a38.49,38.49,0,0,1-11.75-28A42.08,42.08,0,0,1,348.16,29.5c5.09-5.09,14.47-11.08,29.5-11.08C389.41,18.42,399.24,22,406.81,29.38ZM361,40.91c-3.27,3.16-6.66,8.7-6.66,17.06a22.51,22.51,0,0,0,6.89,17,22.17,22.17,0,0,0,16.16,6.21c7.68,0,13.11-2.82,16.73-6.44,2.93-2.83,6.55-8.14,6.55-16.84a23.75,23.75,0,0,0-6.55-17,24.17,24.17,0,0,0-16.62-6.44A23.14,23.14,0,0,0,361,40.91Z"/><line class="cls-1" y1="119.4" x2="418.57" y2="119.4"/></svg>
