<svg id="Layer_1" data-name="Layer 1" xmlns="http://www.w3.org/2000/svg" width="321.91mm" height="108.18mm" viewBox="0 0 912.5 306.65"><defs><style>.cls-1{fill:none;stroke:#1d1d1b;stroke-miterlimit:10;stroke-width:4px;}.cls-2{fill:#1d1d1b;}</style></defs><title>Artboard 6</title><path class="cls-1" d="M814.71,295.48a216.14,216.14,0,0,1-42.55-1.82,75.87,75.87,0,0,1-47.47-28l-40.67-51a1,1,0,0,0-1.72.14l-35.06,62.54a1.19,1.19,0,0,1-2.13-.1l-43.84-99.22a.05.05,0,0,0-.09,0l-40.8,50.47a.18.18,0,0,1-.3,0l-27.43-52a2,2,0,0,0-3.63.09l-46.7,100.61a5.48,5.48,0,0,1-10-.17L416.17,144.27a.9.9,0,0,0-1.64-.05L348,278.49a.37.37,0,0,1-.7-.09L290.22,13.87a2.34,2.34,0,0,0-4.51-.24L198.25,254.4a.35.35,0,0,1-.67,0l-91.22-242a2.34,2.34,0,0,0-4.46.1L23.73,279.45"/><path class="cls-1" d="M888.69,222.85a73,73,0,1,1-73-73A73,73,0,0,1,888.69,222.85Z"/><path class="cls-2" d="M712.5,191.94,646.6,191c-2.34,0-4.19-1-4.12-2.18h0c.07-1.17,2-2.09,4.36-2.06l65.9.94c2.34,0,4.19,1,4.12,2.18h0C716.8,191.05,714.84,192,712.5,191.94Z"/></svg>