<svg id="Layer_1" data-name="Layer 1" xmlns="http://www.w3.org/2000/svg" width="307.11mm" height="103.11mm" viewBox="0 0 870.54 292.27"><defs><style>.cls-1,.cls-2{fill:none;stroke:#fff;stroke-miterlimit:10;stroke-width:6px;}.cls-1{stroke-linecap:round;}.cls-3{fill:#fff;}</style></defs><title>Artboard 7</title><path class="cls-1" d="M792.87,288.49a215.6,215.6,0,0,1-42.54-1.83,75.84,75.84,0,0,1-47.48-28l-40.67-51a1,1,0,0,0-1.72.14L625.4,270.38a1.19,1.19,0,0,1-2.12-.1l-43.85-99.23a0,0,0,0,0-.08,0l-40.81,50.47a.17.17,0,0,1-.29,0l-27.44-52a2,2,0,0,0-3.63.09L460.49,270.22a5.48,5.48,0,0,1-10-.17L394.34,137.28a.91.91,0,0,0-1.65-.05L326.16,271.5a.37.37,0,0,1-.7-.09L268.38,6.87a2.34,2.34,0,0,0-4.51-.24L176.41,247.41a.35.35,0,0,1-.67,0L84.52,5.42a2.34,2.34,0,0,0-4.46.11L1.89,272.46"/><path class="cls-2" d="M866.85,215.86a73,73,0,1,1-73-73A73,73,0,0,1,866.85,215.86Z"/><path class="cls-3" d="M690.66,185l-65.9-.94c-2.34,0-4.19-1-4.12-2.18h0c.07-1.17,2-2.09,4.36-2.06l65.9.94c2.35,0,4.19,1,4.13,2.18h0C695,184.06,693,185,690.66,185Z"/></svg>
